<svg id="Capa_1" enable-background="new 0 0 512 512" height="512" viewBox="0 0 512 512" width="512" xmlns="http://www.w3.org/2000/svg"><g><g><g><path d="m232.306 374.488h47.388v66.353h-47.388z" fill="#fca62f"/><path d="m259.423 374.488h20.221v66.353h-20.221z" fill="#fb9927"/><g><path d="m464.612 374.488h47.388v66.353h-47.388z" fill="#fca62f"/><path d="m491.779 374.488h20.221v66.353h-20.221z" fill="#fb9927"/></g><g><g><path d="m0 374.488h47.388v66.353h-47.388z" fill="#fca62f"/><path d="m27.167 374.488h20.221v66.353h-20.221z" fill="#fb9927"/></g><path d="m512 382.113h-512v-23.229c0-5.69 4.612-10.302 10.302-10.302h15.765v-3.091h459.183v3.091h16.448c5.69 0 10.302 4.612 10.302 10.302z" fill="#fccd8a"/><path d="m512 358.884v23.23h-20.222v-23.23c0-5.687-4.615-10.302-10.302-10.302h20.222c5.687 0 10.302 4.615 10.302 10.302z" fill="#fcc16d"/><path d="m501.698 462.15h-491.396c-5.69 0-10.302-4.612-10.302-10.302v-23.229h512v23.229c0 5.69-4.612 10.302-10.302 10.302z" fill="#fccd8a"/><path d="m512 428.617v23.231c0 5.687-4.615 10.302-10.302 10.302h-20.222c5.687 0 10.302-4.615 10.302-10.302v-23.231z" fill="#fcc16d"/></g></g><g><g><g><path d="m465.92 55.691v286.905c0 3.224-2.617 5.841-5.851 5.841h-47.934v-141.34c0-2.74-2.215-4.955-4.955-4.955h-124.22c-2.73 0-4.945 2.215-4.945 4.955v141.341h-104.852c-3.225 0-5.841-2.617-5.841-5.841v-286.906c0-3.225 2.617-5.841 5.841-5.841h286.905c3.235 0 5.852 2.616 5.852 5.841z" fill="#fcb44d"/><g fill="#fca62f"><path d="m240.063 148.963v193.087c0 3.142-2.215 5.769-5.172 6.387h-61.728c-3.225 0-5.841-2.617-5.841-5.841v-200.154h66.21c3.605 0 6.531 2.916 6.531 6.521z"/><path d="m435.026 190.296h-13.859c3.01 0 5.45-2.44 5.45-5.45v-56.372c0-3.01-2.44-5.45-5.45-5.45h-56.373c-3.01 0-5.45 2.44-5.45 5.45v56.372c0 3.01 2.44 5.45 5.45 5.45h-76.368c-3.228 0-5.846 2.617-5.846 5.846v146.596c0 3.228 2.617 5.846 5.846 5.846h146.596c3.228 0 5.846-2.617 5.846-5.845v-146.6c0-3.228-2.616-5.843-5.842-5.843z"/></g><path d="m465.92 55.691v286.905c0 3.224-2.617 5.841-5.851 5.841h-19.244c3.225 0 5.841-2.617 5.841-5.841v-286.905c0-3.225-2.617-5.841-5.841-5.841h19.244c3.234 0 5.851 2.616 5.851 5.841z" fill="#fca62f"/><path d="m365.199 139.326h-97.685c-2.845 0-5.151-2.306-5.151-5.151v-84.325h107.987v84.325c0 2.845-2.306 5.151-5.151 5.151z" fill="#fccd8a"/></g><g><path d="m223.406 148.962v193.093c0 3.601-2.923 6.524-6.524 6.524h-137.618c-3.601 0-6.524-2.923-6.524-6.524v-193.093c0-3.601 2.923-6.524 6.524-6.524h137.619c3.601 0 6.523 2.922 6.523 6.524z" fill="#9e9797"/><path d="m223.406 148.962v193.093c0 3.601-2.923 6.524-6.524 6.524h-19.494c3.601 0 6.524-2.923 6.524-6.524v-193.093c0-3.601-2.923-6.524-6.524-6.524h19.494c3.602 0 6.524 2.922 6.524 6.524z" fill="#848181"/><path d="m125.607 219.624v123.109c0 3.236-2.623 5.846-5.846 5.846h-40.497c-3.601 0-6.524-2.923-6.524-6.524v-128.276h47.022c3.223 0 5.845 2.622 5.845 5.845z" fill="#848181"/><g><path d="m103.755 348.583h-77.688c-3.228 0-5.846-2.617-5.846-5.846v-123.109c0-3.228 2.617-5.846 5.846-5.846h77.689c3.228 0 5.846 2.617 5.846 5.846v123.109c-.001 3.228-2.618 5.846-5.847 5.846z" fill="#70d9e6"/><path d="m109.601 219.624v123.109c0 3.236-2.623 5.846-5.846 5.846h-19.872c3.223 0 5.846-2.61 5.846-5.846v-123.109c0-3.223-2.623-5.846-5.846-5.846h19.872c3.223.001 5.846 2.623 5.846 5.846z" fill="#3ad1e0"/></g><g><g><g><path d="m424.216 196.137v146.6c0 3.228-2.617 5.846-5.846 5.846h-146.595c-3.228 0-5.846-2.617-5.846-5.846v-146.596c0-3.228 2.617-5.846 5.846-5.846h76.368v-3.091h56.373v3.091h13.859c3.225.001 5.841 2.616 5.841 5.842z" fill="#70d9e6"/><g fill="#3ad1e0"><path d="m301.025 249.874v93.007c0 3.145-2.557 5.702-5.702 5.702h-23.549c-3.223 0-5.846-2.623-5.846-5.846v-98.566h29.394c3.146.001 5.703 2.558 5.703 5.703z"/><path d="m424.216 196.137v146.6c0 3.228-2.617 5.846-5.846 5.846h-20.225c3.223 0 5.846-2.623 5.846-5.846v-146.596c0-3.223-2.623-5.846-5.846-5.846h20.229c3.226.001 5.842 2.616 5.842 5.842z"/></g></g><g><path d="m279.691 348.583h-112.573c-3.152 0-5.706-2.555-5.706-5.706v-93c0-3.152 2.555-5.706 5.706-5.706h112.573c3.152 0 5.706 2.555 5.706 5.706v93c0 3.151-2.555 5.706-5.706 5.706z" fill="#fee265"/><path d="m285.398 249.874v93.002c0 3.15-2.556 5.706-5.706 5.706h-20.269c3.15 0 5.706-2.556 5.706-5.706v-93.002c0-3.15-2.556-5.706-5.706-5.706h20.269c3.15 0 5.706 2.557 5.706 5.706z" fill="#fdd330"/><g><path d="m285.581 281.853v32.526h-39.328c-3.15 0-5.706-2.556-5.706-5.706v-21.113c0-3.15 2.556-5.706 5.706-5.706h39.328z" fill="#fcb44d"/><path d="m265.13 281.853h20.269v32.526h-20.269z" fill="#fca62f"/><g><path d="m198.917 280.829h-1.147c-4.268 0-7.726-3.459-7.726-7.726s3.459-7.726 7.726-7.726h1.147c4.268 0 7.726 3.459 7.726 7.726s-3.459 7.726-7.726 7.726z" fill="#fdd330"/></g><g><path d="m198.917 302.78h-1.147c-4.268 0-7.726-3.459-7.726-7.726s3.459-7.726 7.726-7.726h1.147c4.268 0 7.726 3.459 7.726 7.726s-3.459 7.726-7.726 7.726z" fill="#fdd330"/></g></g></g></g><g><g><path d="m391.054 257.821h-65.655c-4.268 0-7.726-3.459-7.726-7.726s3.459-7.726 7.726-7.726h65.655c4.268 0 7.726 3.459 7.726 7.726s-3.458 7.726-7.726 7.726z" fill="#3ad1e0"/></g><g><path d="m391.054 231.26h-26.511c-4.268 0-7.726-3.459-7.726-7.726s3.459-7.726 7.726-7.726h26.511c4.268 0 7.726 3.459 7.726 7.726s-3.458 7.726-7.726 7.726z" fill="#3ad1e0"/></g></g></g><g><path d="m485.25 348.583h-94.342c-3.603 0-6.524-2.921-6.524-6.524v-48.98c0-3.603 2.921-6.524 6.524-6.524h94.342c3.603 0 6.524 2.921 6.524 6.524v48.98c0 3.603-2.921 6.524-6.524 6.524z" fill="#fee265"/><path d="m459.083 311.841h-42.008c-2.729 0-4.942-2.213-4.942-4.942v-20.346h51.892v20.346c0 2.729-2.212 4.942-4.942 4.942z" fill="#fff9e3"/><path d="m491.779 293.076v48.983c0 3.601-2.923 6.524-6.524 6.524h-19.246c3.601 0 6.524-2.923 6.524-6.524v-48.983c0-3.601-2.923-6.524-6.524-6.524h19.246c3.601 0 6.524 2.923 6.524 6.524z" fill="#fdd330"/></g><path d="m181.992 177.015h-34.87c-2.883 0-5.219-2.337-5.219-5.219v-29.358h45.308v29.358c0 2.882-2.337 5.219-5.219 5.219z" fill="#fcb44d"/></g></g><g><path d="m404.515 190.296h-56.373c-3.01 0-5.45-2.44-5.45-5.45v-56.373c0-3.01 2.44-5.45 5.45-5.45h56.373c3.01 0 5.45 2.44 5.45 5.45v56.373c0 3.01-2.44 5.45-5.45 5.45z" fill="#9e9797"/><path d="m409.961 128.473v56.371c0 3.008-2.431 5.45-5.45 5.45h-18.502c3.008 0 5.45-2.442 5.45-5.45v-56.371c0-3.008-2.441-5.45-5.45-5.45h18.502c3.018 0 5.45 2.442 5.45 5.45z" fill="#848181"/></g><g><path d="m198.341 90.14c-.505 0-1.01-.052-1.505-.154-.494-.093-.989-.247-1.452-.433-.464-.196-.918-.433-1.329-.711-.423-.288-.825-.608-1.175-.968-.36-.35-.68-.752-.958-1.175-.278-.412-.525-.865-.711-1.328-.195-.464-.35-.958-.443-1.453-.103-.494-.154-.999-.154-1.504s.051-1.01.154-1.515c.093-.484.247-.978.443-1.442.186-.464.434-.917.711-1.329.278-.423.598-.824.958-1.175.35-.36.753-.68 1.175-.968.411-.278.865-.515 1.329-.7.474-.196.958-.351 1.452-.443.99-.206 2.02-.206 3.019 0 .494.093.979.247 1.442.443.464.185.917.422 1.329.7.433.289.825.608 1.175.968.36.351.68.752.968 1.175.279.412.515.865.711 1.329.195.464.34.958.443 1.442.093.505.145 1.01.145 1.515s-.052 1.01-.145 1.504c-.103.494-.247.989-.443 1.453-.196.463-.433.917-.711 1.328-.288.423-.608.824-.968 1.175-.35.361-.742.68-1.175.968-.411.278-.865.515-1.329.711-.463.186-.948.34-1.442.433-.505.102-1.01.154-1.514.154z" fill="#fca62f"/></g><g><path d="m198.341 112.804c-2.03 0-4.018-.824-5.461-2.267-.36-.35-.68-.752-.958-1.175-.278-.412-.525-.865-.711-1.328-.195-.464-.35-.958-.443-1.443-.103-.505-.154-1.01-.154-1.514 0-.505.051-1.01.154-1.515.093-.484.247-.978.443-1.442.186-.464.434-.917.711-1.329.278-.423.598-.824.958-1.175.35-.36.753-.68 1.175-.968.411-.278.865-.515 1.329-.711.463-.186.958-.34 1.452-.433.99-.206 2.02-.206 3.019 0 .494.093.979.247 1.442.433.464.196.917.433 1.329.711.433.289.825.608 1.175.968.36.351.68.752.968 1.175.279.412.515.865.711 1.329.195.464.34.958.443 1.442.093.505.145 1.01.145 1.515s-.052 1.01-.145 1.514c-.103.484-.247.979-.443 1.443-.196.463-.433.916-.711 1.328-.288.423-.608.824-.968 1.175-1.433 1.443-3.421 2.267-5.46 2.267z" fill="#fca62f"/></g></g></g><path d="m83.414 253.299-13.21-12.422c-2.974-2.797-7.612-2.798-10.586 0l-13.211 12.422c-3.109 2.923-3.26 7.812-.336 10.922 1.52 1.617 3.572 2.434 5.63 2.434 1.898 0 3.8-.695 5.292-2.098l.192-.181v10.601c0 4.267 3.459 7.726 7.726 7.726s7.726-3.459 7.726-7.726v-10.6l.191.18c3.109 2.923 7.998 2.773 10.922-.336 2.924-3.11 2.773-7.999-.336-10.922z" fill="#3ad1e0"/></g></svg>